<?xml version="1.0" encoding="UTF-8"?>
<svg xmlns="http://www.w3.org/2000/svg" viewBox="0 0 490.7 429.41">
  <defs>
    <style>
      .cls-1 {
        fill: #78b0ff;
      }

      .cls-1, .cls-2, .cls-3, .cls-4, .cls-5, .cls-6, .cls-7, .cls-8, .cls-9, .cls-10, .cls-11, .cls-12 {
        stroke-width: 0px;
      }

      .cls-2 {
        fill: #ffa587;
      }

      .cls-13 {
        stroke-width: .82px;
      }

      .cls-13, .cls-14, .cls-15, .cls-16, .cls-17, .cls-18 {
        fill: none;
        stroke-miterlimit: 10;
      }

      .cls-13, .cls-15, .cls-16 {
        stroke: #296ed3;
      }

      .cls-3 {
        fill: #f5876e;
      }

      .cls-19 {
        isolation: isolate;
      }

      .cls-4 {
        fill: #ffb49b;
      }

      .cls-5 {
        fill: #c6e2f4;
      }

      .cls-6 {
        mix-blend-mode: overlay;
        opacity: .1;
      }

      .cls-14 {
        stroke: #3081f8;
        stroke-width: 1.37px;
      }

      .cls-7 {
        fill: #3285ff;
      }

      .cls-8 {
        fill: #41378c;
      }

      .cls-15 {
        stroke-width: 1.71px;
      }

      .cls-9 {
        fill: #fff;
      }

      .cls-16 {
        stroke-width: 1.71px;
      }

      .cls-10 {
        fill: #2d76e3;
      }

      .cls-11 {
        fill: #6a11cb;
      }

      .cls-12 {
        fill: #3087ff;
      }

      .cls-17 {
        stroke: #3087ff;
        stroke-width: 1.28px;
      }

      .cls-18 {
        stroke: #78b0ff;
        stroke-width: .89px;
      }
    </style>
  </defs>
  <g class="cls-19">
    <g id="OBJECTS">
      <circle class="cls-5" cx="293.44" cy="195.47" r="183.75" transform="translate(-52.27 264.75) rotate(-45)"/>
      <g>
        <path class="cls-7" d="m196.17,389.68s-.99-84.07,55.78-134.49c25.75-22.87,85.29,6.62,28.16,45.43-23.61,16.04-59.59,30.32-83.94,89.06Z"/>
        <path class="cls-14" d="m272.28,271.13s-81.84,53.84-77.34,149.47"/>
      </g>
      <ellipse class="cls-6" cx="290.25" cy="418.88" rx="63.5" ry="8.85"/>
      <g>
        <path class="cls-10" d="m177.25,386.76s-2.9-92.21-119.47-137.78c-40.18-15.71-98.74,41.58-15.5,65.12,34.4,9.73,82.81,12.47,134.97,72.65Z"/>
        <path class="cls-15" d="m39.92,275.97s118.55,31.62,151.02,147.05"/>
      </g>
      <g>
        <path class="cls-12" d="m93.41,194.76c7.56,5.05,9.88,14.84,9.88,14.84,0,0-9.94,1.61-17.5-3.43-7.56-5.05-11.99-11.69-9.88-14.84,2.1-3.15,9.94-1.61,17.5,3.43Z"/>
        <path class="cls-12" d="m110.76,216.36c6.37,2.57,9.6,9.46,9.6,9.46,0,0-7.11,2.72-13.48.15-6.37-2.57-10.67-6.81-9.6-9.46,1.07-2.66,7.11-2.72,13.48-.15Z"/>
        <path class="cls-12" d="m117.42,208.26c2.64,6.35-.01,13.48-.01,13.48,0,0-6.93-3.15-9.56-9.5-2.64-6.35-2.63-12.38.01-13.48,2.64-1.1,6.93,3.15,9.56,9.5Z"/>
        <path class="cls-12" d="m121.43,230.56c8.07,1.88,13.2,9.49,13.2,9.49,0,0-7.96,4.57-16.03,2.69-8.07-1.88-13.98-6.13-13.2-9.49s7.96-4.57,16.03-2.69Z"/>
        <path class="cls-12" d="m135.6,222.15c2.32,7.96-1.81,16.16-1.81,16.16,0,0-7.88-4.7-10.2-12.66-2.32-7.96-1.51-15.19,1.81-16.16s7.88,4.7,10.2,12.66Z"/>
        <path class="cls-12" d="m129.12,247.25c8.29-.03,15.03,6.2,15.03,6.2,0,0-6.7,6.28-14.99,6.3-8.29.03-15.02-2.75-15.03-6.2-.01-3.45,6.7-6.28,14.99-6.3Z"/>
        <path class="cls-12" d="m139.3,265.68c8.84-.41,16.31,5.92,16.31,5.92,0,0-6.85,7-15.69,7.41-8.84.41-16.14-2.24-16.31-5.92s6.85-7,15.69-7.41Z"/>
        <path class="cls-12" d="m148.54,284.1c8.75-1.31,16.83,4.23,16.83,4.23,0,0-6.11,7.66-14.86,8.97-8.75,1.31-16.28-.59-16.83-4.23-.54-3.65,6.11-7.66,14.86-8.97Z"/>
        <path class="cls-12" d="m159.01,305.08c8.84.15,15.9,6.94,15.9,6.94,0,0-7.28,6.55-16.13,6.4-8.84-.15-15.96-3.26-15.9-6.94.06-3.69,7.28-6.55,16.13-6.4Z"/>
        <path class="cls-12" d="m143.57,236.52c-3.27,7.62-.17,16.26-.17,16.26,0,0,8.4-3.71,11.66-11.33,3.27-7.62,3.34-14.9.17-16.26-3.17-1.36-8.4,3.71-11.66,11.33Z"/>
        <path class="cls-12" d="m158.87,254.78c-5.01,7.29-3.57,16.98-3.57,16.98,0,0,9.56-2.13,14.57-9.43,5.01-7.29,6.6-14.9,3.56-16.98s-9.56,2.13-14.57,9.43Z"/>
        <path class="cls-12" d="m169.65,272.36c-5.72,6.74-5.27,16.53-5.27,16.53,0,0,9.73-1.15,15.45-7.89,5.72-6.74,8.09-14.15,5.27-16.53-2.81-2.38-9.73,1.15-15.45,7.89Z"/>
        <path class="cls-12" d="m176.86,295.16c-4.54,7.59-2.49,17.17-2.49,17.17,0,0,9.41-2.73,13.94-10.33,4.54-7.59,5.65-15.28,2.49-17.17-3.16-1.89-9.41,2.73-13.94,10.33Z"/>
        <path class="cls-12" d="m167.97,327.11c8.62,1.97,14.13,10.07,14.13,10.07,0,0-8.48,4.91-17.1,2.94-8.62-1.97-14.95-6.48-14.13-10.07.82-3.59,8.48-4.91,17.1-2.94Z"/>
        <path class="cls-12" d="m187.48,321.08c-6.01,6.49-5.97,16.29-5.97,16.29,0,0,9.77-.73,15.77-7.23,6.01-6.49,8.68-13.79,5.97-16.29-2.71-2.5-9.77.73-15.77,7.23Z"/>
        <path class="cls-12" d="m173.6,351.05c8.43,2.7,13.22,11.24,13.22,11.24,0,0-8.86,4.17-17.29,1.48-8.43-2.7-14.35-7.73-13.22-11.24,1.12-3.51,8.86-4.17,17.29-1.48Z"/>
        <path class="cls-12" d="m193.55,346.69c-6.54,5.96-7.34,15.72-7.34,15.72,0,0,9.8.1,16.33-5.86,6.54-5.96,9.82-13,7.34-15.72-2.48-2.72-9.8-.1-16.33,5.86Z"/>
        <path class="cls-17" d="m94.22,203.93s43.41,23.51,72.36,89.18c28.96,65.67,23.43,127.78,23.43,127.78"/>
      </g>
      <g>
        <path class="cls-1" d="m478.14,278.4c-5.62,2.85-8.03,9.41-8.03,9.41,0,0,6.71,1.93,12.34-.92,5.62-2.85,9.22-7.07,8.03-9.41-1.19-2.34-6.71-1.93-12.34.92Z"/>
        <path class="cls-1" d="m464.4,291.85c-4.6,1.25-7.39,5.73-7.39,5.73,0,0,4.67,2.46,9.27,1.22,4.6-1.25,7.91-3.81,7.39-5.73-.52-1.92-4.67-2.46-9.27-1.22Z"/>
        <path class="cls-1" d="m460.48,285.72c-2.34,4.15-1.1,9.29-1.1,9.29,0,0,5.03-1.6,7.37-5.76,2.34-4.15,2.83-8.31,1.1-9.29-1.73-.97-5.03,1.6-7.37,5.76Z"/>
        <path class="cls-1" d="m455.88,300.75c-5.72.63-9.88,5.45-9.88,5.45,0,0,5.11,3.8,10.82,3.18,5.72-.63,10.14-3.07,9.88-5.45-.26-2.38-5.11-3.8-10.82-3.18Z"/>
        <path class="cls-1" d="m446.81,293.79c-2.25,5.29-.09,11.28-.09,11.28,0,0,5.82-2.59,8.07-7.88,2.25-5.29,2.29-10.34.09-11.28-2.2-.94-5.82,2.59-8.07,7.88Z"/>
        <path class="cls-1" d="m449.21,311.62c-5.71-.7-10.86,3.03-10.86,3.03,0,0,4.1,4.88,9.8,5.58,5.71.7,10.57-.66,10.87-3.03.29-2.38-4.1-4.88-9.8-5.58Z"/>
        <path class="cls-1" d="m440.68,323.47c-6.05-1.01-11.72,2.74-11.72,2.74,0,0,4.15,5.39,10.2,6.4,6.05,1.01,11.3-.21,11.72-2.74.42-2.52-4.15-5.39-10.2-6.4Z"/>
        <path class="cls-1" d="m432.79,335.4c-5.92-1.62-11.94,1.53-11.94,1.53,0,0,3.58,5.78,9.49,7.4s11.27.94,11.94-1.53c.68-2.47-3.58-5.78-9.49-7.4Z"/>
        <path class="cls-1" d="m423.85,349c-6.11-.63-11.53,3.47-11.53,3.47,0,0,4.48,5.11,10.58,5.74,6.11.63,11.27-.93,11.53-3.47.26-2.54-4.48-5.11-10.58-5.74Z"/>
        <path class="cls-1" d="m440.14,303.03c1.62,5.52-1.22,11.21-1.22,11.21,0,0-5.48-3.25-7.1-8.76-1.62-5.52-1.08-10.54,1.22-11.21,2.3-.68,5.48,3.25,7.1,8.76Z"/>
        <path class="cls-1" d="m428.09,314.35c2.85,5.44,1.06,11.99,1.06,11.99,0,0-6.41-2.26-9.26-7.69-2.85-5.44-3.32-10.81-1.06-11.99,2.27-1.19,6.41,2.26,9.26,7.69Z"/>
        <path class="cls-1" d="m419.21,325.57c3.39,5.12,2.27,11.82,2.27,11.82,0,0-6.61-1.59-9.99-6.71-3.39-5.12-4.4-10.41-2.27-11.82,2.13-1.41,6.61,1.59,9.99,6.71Z"/>
        <path class="cls-1" d="m412.37,340.68c2.5,5.61.3,12.04.3,12.04,0,0-6.26-2.66-8.76-8.26-2.5-5.61-2.63-10.99-.3-12.04,2.34-1.04,6.26,2.66,8.76,8.26Z"/>
        <path class="cls-1" d="m415.86,363.43c-6.1.65-10.56,5.77-10.56,5.77,0,0,5.43,4.08,11.54,3.44,6.1-.65,10.83-3.23,10.56-5.77-.27-2.54-5.43-4.08-11.54-3.44Z"/>
        <path class="cls-1" d="m402.92,357.67c3.6,4.97,2.77,11.72,2.77,11.72,0,0-6.67-1.31-10.27-6.28-3.6-4.97-4.84-10.21-2.77-11.72,2.07-1.5,6.67,1.31,10.27,6.28Z"/>
        <path class="cls-1" d="m410.01,379.46c-6.03,1.16-10.04,6.65-10.04,6.65,0,0,5.76,3.6,11.79,2.44,6.03-1.16,10.52-4.14,10.04-6.65-.48-2.51-5.76-3.6-11.79-2.44Z"/>
        <path class="cls-1" d="m396.63,374.81c4.01,4.64,3.76,11.44,3.76,11.44,0,0-6.76-.74-10.77-5.38s-5.7-9.77-3.76-11.44c1.94-1.67,6.76.74,10.77,5.38Z"/>
        <path class="cls-18" d="m476.82,284.65s-31.84,12.62-57.2,55.47c-25.36,42.85-26.67,86.09-26.67,86.09"/>
      </g>
      <g>
        <path class="cls-10" d="m382.49,391.69s-32.63-100.12,16.38-181.62c22.23-36.97,104.41-23.99,50.65,43.77-22.22,28.01-59.89,58.53-67.03,137.85Z"/>
        <path class="cls-16" d="m429.13,221.53s-77.69,94.96-36.54,207.59"/>
      </g>
      <g>
        <path class="cls-10" d="m398.94,409.25s15.09-48.37,57.02-66.69c19.02-8.31,47.65,19.68,7.68,31.28-16.52,4.8-39.8,6.28-64.7,35.41Z"/>
        <path class="cls-13" d="m464.64,355.48s-56.93,15.61-72.17,71.26"/>
      </g>
      <path class="cls-4" d="m355.95,41.22l-.22-11.53c-.04-1.86-.86-3.6-2.24-4.85-2.24-2.01-5-5.59-4.35-6.43,1.19-1.55,5.1,4.13,6.68,2.96.47-.35-2.22-15.87-.62-15.77,1.24.08,1.73,8.82,2.28,8.75.55-.06.41-14.47,1.55-14.36,1.1.11,1.49,13.22,2.25,12.74,1.11-.7-.03-11.52,1.81-12.04,1.23-.35,1.05,13.77,1.74,14.02.86.31,1.23-9.13,2.3-8.76,1.47.52-.75,16.58-.75,16.58l-2.8,20.4-7.62-1.72Z"/>
      <path class="cls-4" d="m188.89,92.59l-7.76-8.52c-1.25-1.37-1.86-3.2-1.71-5.06.24-3-.22-7.5-1.26-7.66-1.93-.31-.87,6.5-2.81,6.74-.58.07-9.3-13.05-10.39-11.88-.85.91,4.81,7.59,4.36,7.92-.44.33-10.25-10.22-11-9.36-.72.84,8.01,10.63,7.12,10.8-1.29.26-7.9-8.39-9.59-7.5-1.14.59,8.71,10.72,8.38,11.37-.41.81-7.18-5.78-7.69-4.78-.71,1.39,11.94,11.52,11.94,11.52l16.06,12.89,4.35-6.49Z"/>
      <path class="cls-8" d="m295.78,62.95c-3.66-15.19-17.31-26.49-33.63-26.49-1.4,0-2.78.09-4.14.25-6.41.79-12.87,1.04-19.27.17-2.83-.38-5.99-.8-9.25-1.22-15.51-2.03-27.97,12.83-23.07,27.69.06.18.12.37.18.55,2.76,8.11,4.07,16.57,4.18,25.13,0,.71.04,1.43.09,2.16,1.19,16.18,13.89,29.6,29.97,31.72,2.06.27,4.09.35,6.07.27,9.26-.41,18.52.86,27.08,4.43,3.68,1.53,7.47,2.69,10.51,2.69,19.12,0,34.63-15.5,34.63-34.63,0-15.18-9.78-28.05-23.37-32.72Z"/>
      <path class="cls-9" d="m376.38,58.84s-5.37,53.58-13.56,69.19c-6.47,12.33-38.9,39.87-38.9,39.87-4.54,4.66-12.11,4.39-16.31-.58h0c-3.02-3.58-3.46-8.67-1.08-12.71,0,0,29.57-31.89,33.97-45.36,4.16-12.77-.67-53.73-.67-53.73-.15-11.9,10.85-20.83,22.47-18.24h0c9.77,2.18,16.02,11.74,14.09,21.56Z"/>
      <path class="cls-8" d="m336.85,359.46c-6.03-2-7.16,2.22-9.18,9.73-2.02,7.51-2.39,13.19-.46,13.71,1.8.49,4.38-2.16,8.7-8.62,5.19-7.76,4.86-13.5.94-14.81Z"/>
      <path class="cls-4" d="m341.45,351.92l-5.86,8.11c-1.87,2.54-1.8,4.38-.64,5.52h0c1.16,1.15,3.02,1.19,4.24.09l9.72-8.14-7.46-5.58Z"/>
      <path class="cls-11" d="m319.98,213.09c-29.46,11.6-21.32,51.52-7.44,59.75,20.64,12.25,61.81,7.1,61.85,10.3.14,13.45-35.77,69.9-35.77,69.9-.29.54-.24,1.22.16,1.68,2.1,2.37,3.49,3.94,7.25,6.35.44.28,1.05.04,1.43-.32,20.12-18.74,60.96-65.02,65.77-84.96,8.02-33.28-87.75-64.87-93.26-62.7Z"/>
      <path class="cls-8" d="m175.7,338.32c-2.59-5.8-6.47-3.79-13.37-.22-6.91,3.57-11.35,7.13-10.43,8.91.86,1.66,4.55,1.77,12.24.61,9.23-1.4,13.25-5.52,11.56-9.3Z"/>
      <path class="cls-4" d="m184.38,336.63l-9.94,1.15c-3.14.33-4.45,1.63-4.51,3.25h0c-.06,1.63,1.16,3.03,2.79,3.18l12.57,1.69-.91-9.27Z"/>
      <path class="cls-11" d="m321.89,217.78c-6.03-6.23-34.68-1.28-34.68-1.28-29.65,11.12-28.16,36.96-24.87,52.76,4.88,23.5-2.64,43.11-4.97,45.29-9.83,9.18-75.73,20.75-75.73,20.75-.6.15-1.07.65-1.13,1.26-.33,3.14-.55,5.23.2,9.64.09.52.67.8,1.2.84,27.4,2.21,82.58,7.03,100.17-3.53,40.29-24.19,62.73-102.05,39.8-125.73Z"/>
      <path class="cls-9" d="m321.72,229.06c9.24-1.17,16.97-7.64,19.66-16.56,4.03-13.38,9.54-35.22,7.03-47.73-2.34-11.67-11.37-33.33-34.02-33.32-15.1,0-45.59,4.48-43.59,27.66,1.24,14.45,3.72,41.63,15.07,59.83,2.13,3.41,5.38,5.99,9.2,7.24,5.9,1.92,15.86,4.25,26.65,2.89Z"/>
      <path class="cls-2" d="m303.81,109.94h15.85v30c0,2.25-1.82,4.07-4.07,4.07h-7.71c-2.25,0-4.07-1.82-4.07-4.07v-30h0Z"/>
      <path class="cls-3" d="m318.07,130.3h0c.54,0,1.06-.05,1.58-.14v-20.22h-15.85v2.95c0,7.88,6.39,17.4,14.26,17.4Z"/>
      <path class="cls-4" d="m321.65,124.83h0c-6.48,2.48-18.17-2.03-20.64-8.51,0,0-5.4-9.81-5.11-13.37,1.34-16.48,17.06-13.29,22.79-10.73,3.27,1.46,4.87,11.67,5.79,15.13,1.78,6.7.02,16.4-2.82,17.48Z"/>
      <path class="cls-2" d="m293.82,112.15c1.11,2.9,4.32,4.36,7.19,3.26l-4.01-10.48c-2.86,1.09-4.28,4.33-3.18,7.22Z"/>
      <path class="cls-2" d="m318.68,92.21l-19.77,7.56,1.66,4.35c-1.98.88-2.94,3.17-2.15,5.24.21.54.51,1,.88,1.39.42-.37.79-.78,1.09-1.24.63-.97,1.59-1.65,2.67-2.08,2.36-.92,4.23-2.59,5.45-4.67,1.69-2.9,4.47-5.09,7.75-5.78.69-.15,1.38-.35,2.06-.61.56-.21,1.14-.5,1.65-.78l-1.3-3.4Z"/>
      <path class="cls-8" d="m305.43,65.81c-4.24,1.76-7.3,5.21-8.71,9.26-1.47,4.24-4.66,7.58-8.47,9.96-.04.03-.09.06-.13.08-4.21,2.7-6.45,7.81-5.53,12.72.12.65.29,1.28.5,1.88.69,1.99,1.07,4.1.81,6.18-.12.97-.02,1.97.35,2.94,1.28,3.36,5.23,4.97,8.82,3.6,1.49-.57,2.67-1.56,3.46-2.77.72-1.11,1.81-1.89,3.05-2.37,2.69-1.05,4.83-2.95,6.21-5.32,1.92-3.3,5.09-5.8,8.83-6.59.79-.17,1.57-.4,2.35-.69,8.16-3.12,12.18-12.38,8.8-20.5-3.16-7.6-12.73-11.54-20.33-8.38Z"/>
      <path class="cls-9" d="m179.48,112.26s35.29,32.77,51.28,39.61c11.57,4.95,56.51,9.69,56.51,9.69,5.7,1.45,11.55-2.33,12.63-8.14h0c.77-4.19-1.19-8.33-4.89-10.32,0,0-39.9-6.45-50.97-12.79-11.19-6.42-37.17-37.84-37.17-37.84-10.07-9.69-17.99-10.96-26-3.48h0c-6.73,6.29-9.46,18.28-1.39,23.29Z"/>
    </g>
  </g>
</svg>